<svg xmlns="http://www.w3.org/2000/svg" viewBox="0 0 127.07 306.59"><defs><style>.cls-1{fill:#61c0ec;}.cls-2{fill:#f8fafd;}.cls-3{fill:#284194;}.cls-4{fill:#cceaea;}.cls-5{fill:#283f93;}.cls-6{fill:#293f93;}.cls-7{fill:#5ab4e5;}</style></defs><g id="Layer_2" data-name="Layer 2"><g id="Layer_1-2" data-name="Layer 1"><path class="cls-1" d="M15.4,36.84C6.44,20.1,16.21,5.57,28,1.49c14.89-5.16,26.77,3.18,32.26,23,2.67-.71,5.41-1.27,8-2.24.71-.26,1.19-1.68,1.42-2.65C72,9.35,80.55,1.36,90.16.43c11.38-1.1,20.55,4.48,25.27,15.23a9.24,9.24,0,0,0,2.55,3A24.15,24.15,0,0,1,127.06,38q0,126,0,251.92c0,10.73-5.91,16.7-16.56,16.7H79.05c-9.85,0-16.12-6.19-16.14-16.11,0-21.33,0-42.67,0-64v-128c0-7.28-2.8-9.47-9.81-7.75-11.71,2.87-23.4,5.89-35.16,8.53-7.67,1.72-16-4.75-16.52-12.84-.31-5.09-.48-10.2-.71-15.3C.45,65.61.05,60.13,0,54.66c-.07-9.2,3.61-14.08,12.32-16.81C13.27,37.55,14.2,37.23,15.4,36.84Zm93.19-26.13C104,4.07,94.49,2.36,89,3.75,78.08,6.53,71.2,16.08,72.58,26.68,74,37.61,83,45.06,94.63,44.53c8-.37,14-4.45,17.25-11.74s2.9-14.76-2.58-21.3Zm-57.19,1,0,0c-.6-1-1-2.29-1.84-3-6.19-5-13.05-6.92-20.87-4.15A20.67,20.67,0,0,0,16.51,32c4.1,10.35,16.76,15.62,27,11.26,11-4.68,16-17.46,10.83-28C53.72,13.85,52.41,12.84,51.4,11.68ZM62.63,67.91c6.81-.36,11.81-.88,15.53-4.79,2.5-2.63,3.36-5.86,1.74-9.3a5.55,5.55,0,0,0-6.59-3.12,41.43,41.43,0,0,1-17.7,0c-5.11-1-8.58,3.06-7,8a11.94,11.94,0,0,0,5.06,6.39C56.82,66.91,60.67,67.36,62.63,67.91ZM16.27,44.16c-2,.59-4.88.91-7.13,2.22-1.7,1-3.67,3.21-3.69,4.91s1.83,4,3.49,5.14c3.9,2.61,8.33,2.84,12.78,1.16,2.9-1.09,5.69-2.62,5.76-6,.09-3.6-2.64-5.39-5.81-6.34C20.15,44.78,18.55,44.6,16.27,44.16ZM124.2,51.23c-1.31-1.71-2.17-3.37-3.5-4.45-4-3.29-13.17-3-17.2.32-3.24,2.66-3,6.5.59,9,4.57,3.24,12.77,3.14,17.09-.45C122.39,54.68,123,53,124.2,51.23Z"/><path class="cls-2" d="M51.4,11.68c1,1.16,2.32,2.17,3,3.51,5.16,10.56.17,23.34-10.83,28-10.27,4.36-22.93-.91-27-11.26A20.67,20.67,0,0,1,28.73,4.58c7.82-2.77,14.68-.89,20.87,4.15.86.69,1.24,2,1.84,3a23,23,0,0,1-2.28-1.43,13,13,0,0,0-15.3-.6A12.71,12.71,0,0,0,29.1,24.19a12.46,12.46,0,0,0,12.28,8.49c5.79-.09,10.15-3.71,12-9.38C54.77,19,52.54,15.46,51.4,11.68Z"/><path class="cls-2" d="M109.31,11.49c5.47,6.54,5.86,13.88,2.57,21.3s-9.22,11.37-17.25,11.74C83,45.06,74,37.61,72.58,26.68,71.2,16.08,78.08,6.53,89,3.75c5.47-1.39,15,.32,19.57,7l-.62.66a35.4,35.4,0,0,0-3-2.18,12.65,12.65,0,0,0-16.09,19A12.86,12.86,0,0,0,105.11,31c6.44-3.81,7.83-11.23,3.53-18.85Z"/><path class="cls-3" d="M62.63,67.91c-2-.55-5.81-1-9-2.72a11.94,11.94,0,0,1-5.06-6.39c-1.58-5,1.89-9,7-8a41.43,41.43,0,0,0,17.7,0,5.55,5.55,0,0,1,6.59,3.12c1.62,3.44.76,6.67-1.74,9.3C74.44,67,69.44,67.55,62.63,67.91ZM54.85,57.39c.56,2.93,3.75,4.41,10.05,4.32,5.81-.08,8.7-1.61,9.12-4.32Z"/><path class="cls-4" d="M16.27,44.16c2.28.44,3.88.62,5.4,1.07,3.17,1,5.9,2.74,5.81,6.34-.07,3.4-2.86,4.93-5.76,6C17.27,59.27,12.84,59,8.94,56.43,7.28,55.32,5.43,53,5.45,51.29s2-3.93,3.69-4.91C11.39,45.07,14.22,44.75,16.27,44.16Z"/><path class="cls-4" d="M124.2,51.23c-1.16,1.77-1.81,3.45-3,4.46-4.32,3.59-12.52,3.69-17.09.45-3.57-2.54-3.83-6.38-.59-9,4-3.33,13.16-3.61,17.2-.32C122,47.86,122.89,49.52,124.2,51.23Z"/><path class="cls-2" d="M108.59,10.71l.72.78-.67.63-.67-.75Z"/><path class="cls-5" d="M51.4,11.68c1.14,3.78,3.37,7.28,2,11.62-1.84,5.67-6.2,9.29-12,9.38A12.46,12.46,0,0,1,29.1,24.19,12.71,12.71,0,0,1,33.86,9.68a13,13,0,0,1,15.3.6,23,23,0,0,0,2.28,1.43Z"/><path class="cls-6" d="M108,11.37l.67.75c4.3,7.62,2.91,15-3.53,18.85a12.86,12.86,0,0,1-16.24-2.73A12.65,12.65,0,0,1,105,9.19,35.4,35.4,0,0,1,108,11.37Z"/><path class="cls-7" d="M54.85,57.39H74c-.42,2.71-3.31,4.24-9.12,4.32C58.6,61.8,55.41,60.32,54.85,57.39Z"/></g></g></svg>