<svg xmlns="http://www.w3.org/2000/svg" viewBox="0 0 197.93 305.1"><defs><style>.cls-1{fill:#fad1dd;}.cls-2{fill:#ccc3c5;}.cls-3{fill:#e2dddf;}.cls-4{fill:#eae6e7;}.cls-5{fill:#cdc4c6;}.cls-6{fill:#c4babd;}.cls-7{fill:#fefdfe;}.cls-8{fill:#bc6ead;}.cls-9{fill:#f9b7a8;}.cls-10{fill:#be70ae;}</style></defs><g id="Layer_2" data-name="Layer 2"><g id="Layer_1-2" data-name="Layer 1"><path class="cls-1" d="M113.12,248.13c13.69-.3,25.52-10.86,27.64-24.79,1.84-12-.8-22.6-10.31-30.9-4.86-4.24-10.55-7-16.85-7.1-24.41-.51-48.84-1.1-73.24-.69a40.1,40.1,0,0,1-40-34.06c-.9-6.28.1-12.87.65-19.29.73-8.59,1.88-17.15,2.82-25.73C5.05,94.41,6.3,83.25,7.43,72.08c.89-8.72,1.51-17.47,2.43-26.19.66-6.24.67-12.72,5.91-17.5a17.18,17.18,0,0,1,11.75-4.85c4.37-.05,8.73-.11,13.1,0,2.38.08,3.38-.95,3.61-3.2C45.32,9.82,57.73.3,67.63,0,80.86-.37,92.31,9.72,93.78,20.85a3.92,3.92,0,0,0,2.51,2.54,22.17,22.17,0,0,0,5.59.12c.85,0,1.69-.15,2.48-.22C106.93,7.78,119.16.84,127,.17,141.39-1,152.59,7.79,155.6,23.53c4.51,0,9.09,0,13.68,0a16.77,16.77,0,0,1,16.44,14.36V65.35A16.21,16.21,0,0,1,171.37,79.7q-48.84,0-97.67,0a16.08,16.08,0,0,0-3.16.63,10.07,10.07,0,0,0-8.37,9c-.91,8.68-2,17.34-2.89,26-.58,5.76.84,10.85,7.38,12.2a18.18,18.18,0,0,0,3.51.7c13.81,0,27.62,0,41.43,0,21.89.51,41.31,7.31,57.78,22.16a82.94,82.94,0,0,1,27.36,51.11c2.64,18.35,1.13,36.54-6.85,53.59-9.38,20.06-24.35,34.54-44.9,43.08a93.29,93.29,0,0,1-37.06,6.85c-29.68-.22-59.36-.06-89-.08-8,0-15.24-6.57-15.86-14.39q0-13.69,0-27.4c.58-7.66,7-13.76,15-14.37q45.8,0,91.57,0A17.26,17.26,0,0,0,113.12,248.13Zm32.1-238.08,0,0-1.69-.78-.58-.4c-1.46-1.33-2.69-3.25-4.41-3.9C129.37,1.49,121.09,3,114,10.19c-7.67,7.85-8.33,19.07-1.55,28.56,5.85,8.19,18.07,10.93,27.42,6.16,9.5-4.85,14.53-16.34,11-26.14-.95-2.65-3.29-4.8-5-7.18H146Zm-61.39.07a12.59,12.59,0,0,0-2.15-2.7c-10-7.1-24-4.81-30.74,4.95A22,22,0,0,0,57,43.73c10.76,7.1,23.39,3.4,30.45-6.52C92.6,30,91.72,17.37,86.17,12.27ZM45,48.18c-2.93,1.13-6.09,1.87-8.74,3.47-3.29,2-3.3,5.75-.67,8.58,5,5.41,15.46,4.24,19.84.3,2.72-2.45,2.78-5.13.38-7.84C53,49.51,49.32,48.76,45,48.18Zm108.06-.07C150,49.27,146.73,50,144,51.7c-3.27,2-3.3,6-.53,8.57,5.75,5.42,14.77,4.24,19.58.4,3.07-2.45,3.12-5.15.51-8S157.28,48.79,153.06,48.11ZM97.93,76.05c6.63-.84,12.84-2.32,18.23-6.22,1.82-1.32,3.52-2.9,1.89-5.22s-3.59-1.17-5.83-.21A67.19,67.19,0,0,1,98.38,69c-4.82.91-8.54-2.55-12.53-4.76-1.24-.69-3.25,0-4.91.13.31,1.61.06,3.85,1,4.74C86.49,73.24,92,75.27,97.93,76.05Z"/><path class="cls-2" d="M70.54,80.33a16.08,16.08,0,0,1,3.16-.63q48.84,0,97.67,0a11.63,11.63,0,0,1-2.76.69Q119.57,80.41,70.54,80.33Z"/><path class="cls-3" d="M113.12,248.13a17.26,17.26,0,0,1-3.5.71q-45.78.06-91.57,0a17.46,17.46,0,0,1,3.51-.7Q67.34,248.1,113.12,248.13Z"/><path class="cls-4" d="M111.6,128.31c-13.81,0-27.62,0-41.43,0a18.18,18.18,0,0,1-3.51-.7c13.68,0,27.37,0,41.05,0A22.06,22.06,0,0,1,111.6,128.31Z"/><path class="cls-5" d="M185.72,65.35V37.89a15.14,15.14,0,0,1,.69,3.13q.09,10.6,0,21.21A15.2,15.2,0,0,1,185.72,65.35Z"/><path class="cls-6" d="M3,263.23q0,13.69,0,27.4a19.38,19.38,0,0,1-.68-3.49q-.09-10.22,0-20.42A18.58,18.58,0,0,1,3,263.23Z"/><path class="cls-7" d="M145.92,11.59c1.71,2.38,4.05,4.53,5,7.18,3.51,9.8-1.52,21.29-11,26.14-9.35,4.77-21.57,2-27.42-6.16C105.7,29.26,106.36,18,114,10.19,121.09,3,129.37,1.49,138.58,5c1.72.65,2.95,2.57,4.41,3.9a15.88,15.88,0,0,0-12.53-1.47c-5.19,1.4-9.19,7.5-9.13,12.8,0,5.09,4.81,11.46,9.66,12.93a13.82,13.82,0,0,0,14.61-5C149.64,22.71,149,17.17,145.92,11.59Z"/><path class="cls-7" d="M86.17,12.27c5.55,5.1,6.43,17.69,1.28,24.94C80.39,47.13,67.76,50.83,57,43.73a22,22,0,0,1-6.06-31.36c6.72-9.76,20.7-12,30.74-4.95a12.59,12.59,0,0,1,2.15,2.7l-.1.09A15.74,15.74,0,0,0,69.05,7.49c-6.65,2-10,10.17-7.64,17.06a13.51,13.51,0,0,0,16.5,8.33c7.24-2.21,12.4-10.35,7.75-20.13Z"/><path class="cls-8" d="M145.92,11.59c3.09,5.58,3.72,11.12-.32,16.55a13.82,13.82,0,0,1-14.61,5c-4.85-1.47-9.61-7.84-9.66-12.93-.06-5.3,3.94-11.4,9.13-12.8A15.88,15.88,0,0,1,143,8.92l.58.4,1.69.78,0,0L146,11.6Z"/><path class="cls-9" d="M45,48.18c4.32.58,8,1.33,10.81,4.51,2.4,2.71,2.34,5.39-.38,7.84-4.38,3.94-14.8,5.11-19.84-.3C33,57.4,33,53.64,36.26,51.65,38.91,50.05,42.07,49.31,45,48.18Z"/><path class="cls-9" d="M153.06,48.11c4.22.68,7.75,1.48,10.48,4.52s2.56,5.59-.51,8c-4.81,3.84-13.83,5-19.58-.4-2.77-2.61-2.74-6.59.53-8.57C146.73,50,150,49.27,153.06,48.11Z"/><path class="cls-10" d="M97.93,76.05c-5.89-.78-11.44-2.81-16-6.92-1-.89-.73-3.13-1-4.74,1.66-.09,3.67-.82,4.91-.13,4,2.21,7.71,5.67,12.53,4.76a67.19,67.19,0,0,0,13.84-4.62c2.24-1,4.17-2.16,5.83.21s-.07,3.9-1.89,5.22C110.77,73.73,104.56,75.21,97.93,76.05Z"/><path class="cls-7" d="M83.83,10.12l2.34,2.15-.51.48-1.93-2.54Z"/><path class="cls-7" d="M145.26,10.1l-1.69-.78Z"/><path class="cls-7" d="M146,11.6l-.78-1.54Z"/><path class="cls-8" d="M83.73,10.21l1.93,2.54c4.65,9.78-.51,17.92-7.75,20.13a13.51,13.51,0,0,1-16.5-8.33C59,17.66,62.4,9.46,69.05,7.49A15.74,15.74,0,0,1,83.73,10.21Z"/></g></g></svg>